<?xml version="1.0" encoding="UTF-8"?>
<svg id="Layer_2" xmlns="http://www.w3.org/2000/svg" viewBox="0 0 517.09 765.73">
  <g id="Layer_1-2" data-name="Layer_1">
    <g>
      <path d="M272.24,166.36c-3.39,13.12-9.1,24.67-17.15,34.62-8.04,9.96-17.86,18.32-29.43,25.1-11.58,6.78-24.7,11.87-39.38,15.26-14.68,3.39-30.35,5.09-47,5.09-22.02,0-41.64-3.07-58.85-9.19-17.22-6.12-31.83-14.65-43.82-25.59-12-10.94-21.1-23.95-27.31-39.05C3.1,157.5,0,140.88,0,122.72s3.39-35.11,10.16-50.2c6.77-15.09,16.37-28,28.79-38.72,12.42-10.72,27.37-19.03,44.88-24.94C101.33,2.95,120.95,0,142.68,0c15.81,0,30.76,1.8,44.88,5.41,14.11,3.61,26.74,8.81,37.89,15.59,11.15,6.78,20.6,15.15,28.37,25.1,7.76,9.96,13.34,21.28,16.72,33.96h-41.92c-2.26-7.43-5.86-14.32-10.8-20.67-4.94-6.34-11.08-11.81-18.42-16.41-7.34-4.59-15.95-8.2-25.83-10.83-9.88-2.62-20.89-3.94-33.02-3.94-13.55,0-26.18,2.03-37.89,6.07-11.72,4.05-21.95,10.06-30.7,18.05-8.75,7.99-15.6,17.88-20.53,29.7-4.94,11.81-7.41,25.38-7.41,40.69s2.4,28.55,7.2,40.36c4.8,11.81,11.57,21.82,20.32,30.02,8.75,8.2,19.05,14.44,30.91,18.7,11.86,4.27,24.98,6.4,39.38,6.4,24.56,0,44.25-4.81,59.06-14.44,14.82-9.62,24.62-22.09,29.43-37.41h41.92Z"/>
      <path d="M65.69,267.69v146.07c0,23.63,5.27,41.07,15.83,52.33,10.55,11.26,28.5,16.89,53.83,16.89s44.08-6.24,54.76-18.71c10.68-12.47,16.02-30.52,16.02-54.16v-142.43h38v139.78c0,17.67-1.99,33.01-5.96,46.04-3.98,13.03-10.31,23.91-19,32.63-8.7,8.73-19.93,15.24-33.72,19.54-13.78,4.31-30.49,6.46-50.11,6.46s-34.78-1.82-48.43-5.46c-13.66-3.64-24.84-9.49-33.53-17.56-8.7-8.06-15.15-18.55-19.37-31.47-4.23-12.92-6.33-28.76-6.33-47.53v-142.43h38Z"/>
      <path d="M285.49,527.83l83.83,116.16,85.53-116.16h47.42l-112.62,145.69v92.2h-43.19v-92.86l-108.39-145.03h47.42Z"/>
      <path d="M214.67,658.57c-2.11-.57-4.32-1.09-6.62-1.56,12.46-4.09,22.6-10.1,30.41-18.01,9.72-9.84,14.58-24.17,14.58-42.99,0-14.22-2.83-25.81-8.51-34.78-5.69-8.96-13.58-15.96-23.67-21-10.09-5.03-22.15-8.41-36.16-10.17-14.01-1.76-29.34-2.63-46-2.63H51.61v237.7h38.63v-98.08h67.07c14.5,0,25.91,1.16,34.21,3.5,8.32,2.34,14.25,6.27,17.81,11.8s5.34,13.22,5.34,23.05v59.73h31.64v-59.73c0-14.26-2.76-24.95-8.31-32.08-5.54-7.14-13.31-12.05-23.34-14.75ZM90.23,555.65h51.49c10.09,0,19.49.44,28.21,1.31,8.71.88,16.28,2.68,22.71,5.41,6.44,2.74,11.49,6.84,15.15,12.31,3.66,5.46,5.48,12.79,5.48,21.98s-1.82,16.46-5.48,21.82c-3.66,5.37-8.71,9.4-15.15,12.14-6.43,2.74-14.01,4.49-22.71,5.26-8.72.76-18.12,1.15-28.21,1.15h-51.49v-81.38Z"/>
      <path d="M351.54,256.75h49.96l115.59,237.89h-46.57l-24.13-51.52h-140.99l-23.71,51.52h-44.03l113.89-237.89ZM318.52,414.58h114.32l-57.58-124.03-56.73,124.03Z"/>
    </g>
  </g>
</svg>
