<?xml version="1.0" encoding="UTF-8"?>
<svg id="Layer_2" xmlns="http://www.w3.org/2000/svg" viewBox="0 0 1151 219.8">
  <defs>
    <style>
      .cls-1 {
        fill: #2b2829;
      }
    </style>
  </defs>
  <g id="Layer_1-2" data-name="Layer_1">
    <g>
      <path class="cls-1" d="M242.83,148.39c-3.02,11.71-8.12,22-15.3,30.88-7.18,8.88-15.93,16.34-26.25,22.39-10.33,6.05-22.03,10.59-35.12,13.61-13.09,3.02-27.07,4.54-41.92,4.54-19.64,0-37.14-2.73-52.49-8.19-15.36-5.46-28.39-13.07-39.09-22.83-10.7-9.75-18.82-21.37-24.36-34.83C2.77,140.48,0,125.66,0,109.46s3.02-31.32,9.06-44.78c6.04-13.46,14.6-24.97,25.68-34.54,11.08-9.56,24.42-16.98,40.03-22.24C90.38,2.63,107.88,0,127.27,0c14.1,0,27.44,1.61,40.03,4.83,12.59,3.22,23.85,7.86,33.8,13.9,9.94,6.05,18.37,13.51,25.3,22.39,6.92,8.88,11.9,18.98,14.92,30.29h-37.39c-2.02-6.63-5.23-12.78-9.63-18.44-4.41-5.66-9.88-10.54-16.43-14.63-6.55-4.1-14.23-7.32-23.04-9.66-8.82-2.34-18.63-3.51-29.46-3.51-12.08,0-23.35,1.81-33.8,5.41-10.45,3.61-19.58,8.98-27.38,16.1-7.81,7.13-13.91,15.95-18.32,26.49-4.41,10.54-6.61,22.64-6.61,36.29s2.14,25.46,6.42,36c4.28,10.54,10.32,19.46,18.13,26.78,7.8,7.32,16.99,12.88,27.57,16.68,10.57,3.81,22.28,5.71,35.12,5.71,21.9,0,39.46-4.29,52.68-12.88,13.22-8.58,21.96-19.71,26.25-33.37h37.39Z"/>
      <path class="cls-1" d="M302.87,3.8v129.07c0,20.88,5.35,36.29,16.05,46.24,10.7,9.95,28.89,14.93,54.57,14.93s44.69-5.51,55.51-16.54c10.82-11.02,16.24-26.97,16.24-47.85V3.8h38.52v123.51c0,15.61-2.02,29.17-6.04,40.68-4.03,11.52-10.45,21.12-19.26,28.83-8.82,7.71-20.2,13.46-34.18,17.27-13.97,3.8-30.91,5.71-50.79,5.71s-35.25-1.61-49.09-4.83c-13.85-3.22-25.18-8.39-33.99-15.51-8.82-7.12-15.36-16.39-19.64-27.8-4.28-11.41-6.42-25.41-6.42-42V3.8h38.52Z"/>
      <path class="cls-1" d="M688.31,120.77c-2.1-.51-4.31-.98-6.6-1.39,12.43-3.65,22.54-9.01,30.33-16.06,9.69-8.78,14.54-21.56,14.54-38.34,0-12.68-2.83-23.02-8.49-31.02-5.67-7.99-13.54-14.23-23.61-18.73-10.07-4.48-22.09-7.5-36.07-9.07-13.97-1.57-29.26-2.35-45.88-2.35h-86.86v212.02h38.53v-87.48h66.89c14.46,0,25.85,1.04,34.12,3.12,8.3,2.08,14.21,5.59,17.76,10.52s5.33,11.79,5.33,20.56v53.28h31.56v-53.28c0-12.72-2.76-22.26-8.29-28.61-5.52-6.37-13.28-10.75-23.27-13.16ZM564.21,28.97h51.36c10.07,0,19.44.4,28.13,1.17,8.68.78,16.24,2.39,22.65,4.83,6.43,2.44,11.46,6.1,15.11,10.98,3.65,4.87,5.47,11.41,5.47,19.6s-1.82,14.68-5.47,19.46c-3.65,4.79-8.68,8.39-15.11,10.83-6.42,2.44-13.97,4.01-22.65,4.69-8.69.68-18.07,1.03-28.13,1.03h-51.36V28.97Z"/>
      <path class="cls-1" d="M837.43,3.8h44.56l103.1,212.19h-41.54l-21.53-45.95h-125.76l-21.15,45.95h-39.28L837.43,3.8ZM807.97,144.58h101.96l-51.36-110.63-50.6,110.63Z"/>
      <path class="cls-1" d="M957.64,3.8l74.77,103.61L1108.7,3.8h42.3l-100.45,129.95v82.24h-38.52v-82.83L915.35,3.8h42.3Z"/>
    </g>
  </g>
</svg>
